Coordinates
version=1
nRows=5
nColumns=40
inDegrees=yes

Units are S.I. units (second, meters, Newtons, ...)
Angles are in degrees.

endheader
time	pelvis_tilt	pelvis_list	pelvis_rotation	pelvis_tx	pelvis_ty	pelvis_tz	hip_flexion_r	hip_adduction_r	hip_rotation_r	knee_angle_r	knee_angle_r_beta	ankle_angle_r	subtalar_angle_r	mtp_angle_r	hip_flexion_l	hip_adduction_l	hip_rotation_l	knee_angle_l	knee_angle_l_beta	ankle_angle_l	subtalar_angle_l	mtp_angle_l	lumbar_extension	lumbar_bending	lumbar_rotation	arm_flex_r	arm_add_r	arm_rot_r	elbow_flex_r	pro_sup_r	wrist_flex_r	wrist_dev_r	arm_flex_l	arm_add_l	arm_rot_l	elbow_flex_l	pro_sup_l	wrist_flex_l	wrist_dev_l
     28.71500000	     -5.78421801	     -3.59817205	     -8.97650631	      0.95988112	      0.92421218	      0.42559310	     26.15511169	     -3.93068858	     -2.40218495	     23.37243329	     23.37243329	      7.45412652	     -1.27438100	      1.11807356	     14.13465300	     -2.52206542	     -7.21038166	     24.68247959	     24.68247959	     18.37413838	    -15.63491429	      4.94467596	    -12.09980088	      7.44414212	      0.82666432	    -18.27657368	    -12.88898123	     -6.84306158	     29.45412282	     46.29047862	      0.00000000	      0.00000000	     24.90611959	    -21.40801173	     -8.79952206	     85.46058310	     48.05454763	      0.00000000	      0.00000000
     28.74021429	     -5.97326653	     -3.59341499	     -9.24097027	      0.95817648	      0.92387551	      0.43043249	     25.76481973	     -3.65207107	     -2.32015949	     21.37219923	     21.37219923	      6.68707643	      1.09880077	      1.59563181	     13.99628765	     -2.89077877	     -7.42611491	     24.64526122	     24.64526122	     18.45620538	    -15.62282674	      4.76082403	    -12.12871047	      7.40641846	      0.90532801	    -18.95456924	    -12.60267630	     -6.73687092	     29.78436042	     46.25915360	      0.00000000	      0.00000000	     26.25477938	    -21.55244670	     -9.21114426	     86.99703691	     48.12265816	      0.00000000	      0.00000000
     28.76542857	     -6.15585837	     -3.44958369	     -9.45087540	      0.95671920	      0.92319502	      0.43541922	     25.52994268	     -3.58142939	     -2.54037942	     20.05933107	     20.05933107	      6.12250900	      3.68402039	      1.80302360	     13.89307254	     -3.11345241	     -7.62966408	     24.67896580	     24.67896580	     18.60375423	    -15.57758352	      4.51802801	    -12.15293311	      7.23927479	      1.04607452	    -19.38752157	    -12.31374675	     -6.63015570	     30.63481969	     46.20668885	      0.00000000	      0.00000000	     27.39956205	    -21.53399345	     -9.62822789	     88.96991429	     48.19982686	      0.00000000	      0.00000000
     28.79064286	     -6.35544981	     -3.30328346	     -9.59130844	      0.95544377	      0.92240132	      0.44069721	     25.35971910	     -3.45812573	     -2.67865425	     19.20818293	     19.20818293	      5.61763075	      5.57031604	      1.81032896	     13.83883608	     -3.33598459	     -7.71517133	     24.78447446	     24.78447446	     18.77774989	    -15.62873874	      4.34429465	    -12.14198699	      7.09138878	      1.09433582	    -19.40756211	    -12.08795025	     -6.48536352	     31.69794572	     46.14674145	      0.00000000	      0.00000000	     28.35667464	    -21.47211190	     -9.99263553	     90.78119315	     48.27001343	      0.00000000	      0.00000000
     28.81585714	     -6.55347701	     -3.12247154	     -9.66268604	      0.95437030	      0.92151653	      0.44630947	     25.25892297	     -3.31804519	     -2.69480768	     18.78610640	     18.78610640	      5.10756864	      6.70678161	      0.95870441	     13.78428254	     -3.52174876	     -7.69868331	     24.90673753	     24.90673753	     18.96275326	    -15.71968851	      4.24803150	    -12.10907628	      6.92056694	      0.80142775	    -19.25014161	    -12.12723148	     -5.82351650	     33.87804140	     46.00271694	      0.00000000	      0.00000000	     28.83792051	    -21.55205077	    -10.70028299	     92.80239430	     48.37687243	      0.00000000	      0.00000000
